0
SECTION
2
HEADER
9
$INSUNITS
70
4
9
$ACADVER
1
AC1014
9
$HANDSEED
5
FFFF
0
ENDSEC
0
SECTION
2
TABLES
0
TABLE
2
VPORT
5
8
100
AcDbSymbolTable
0
ENDTAB
0
TABLE
2
LTYPE
5
5
100
AcDbSymbolTable
0
LTYPE
5
14
100
AcDbSymbolTableRecord
100
AcDbLinetypeTableRecord
2
BYBLOCK
70
0
0
LTYPE
5
15
100
AcDbSymbolTableRecord
100
AcDbLinetypeTableRecord
2
BYLAYER
70
0
0
LTYPE
5
16
100
AcDbSymbolTableRecord
100
AcDbLinetypeTableRecord
2
DASHED
70
0
3
Dashed __ __ __ __ __ __ __ __ __ __ __ __ __ _
72
65
73
2
40
0.75
49
0.5
74
0
49
-0.25
74
0
0
ENDTAB
0
TABLE
2
LAYER
5
2
100
AcDbSymbolTable
70
2
0
LAYER
5
50
100
AcDbSymbolTableRecord
100
AcDbLayerTableRecord
2
0
70
0
62
7
6
CONTINUOUS
0
ENDTAB
0
TABLE
2
STYLE
5
3
100
AcDbSymbolTable
70
1
0
STYLE
5
11
100
AcDbSymbolTableRecord
100
AcDbTextStyleTableRecord
2
STANDARD
70
0
0
ENDTAB
0
TABLE
2
VIEW
5
6
100
AcDbSymbolTable
70
0
0
ENDTAB
0
TABLE
2
UCS
5
7
100
AcDbSymbolTable
70
0
0
ENDTAB
0
TABLE
2
APPID
5
9
100
AcDbSymbolTable
70
2
0
APPID
5
12
100
AcDbSymbolTableRecord
100
AcDbRegAppTableRecord
2
ACAD
70
0
0
ENDTAB
0
TABLE
2
DIMSTYLE
5
A
100
AcDbSymbolTable
70
1
0
ENDTAB
0
TABLE
2
BLOCK_RECORD
5
1
100
AcDbSymbolTable
70
1
0
BLOCK_RECORD
5
1F
100
AcDbSymbolTableRecord
100
AcDbBlockTableRecord
2
*MODEL_SPACE
0
BLOCK_RECORD
5
1B
100
AcDbSymbolTableRecord
100
AcDbBlockTableRecord
2
*PAPER_SPACE
0
ENDTAB
0
ENDSEC
0
SECTION
2
BLOCKS
0
BLOCK
5
20
100
AcDbEntity
100
AcDbBlockBegin
2
*MODEL_SPACE
0
ENDBLK
5
21
100
AcDbEntity
100
AcDbBlockEnd
0
BLOCK
5
1C
100
AcDbEntity
100
AcDbBlockBegin
2
*PAPER_SPACE
0
ENDBLK
5
1D
100
AcDbEntity
100
AcDbBlockEnd
0
ENDSEC
0
SECTION
2
ENTITIES
0
LWPOLYLINE
5
100
100
AcDbEntity
8
0
100
AcDbPolyline
90
76
70
1
43
0.0
10
-3.8999999999969059
20
0.51961524227128741
10
-3.5999999999972916
20
1.2915363223342524e-12
10
-3.8999999999969059
20
-0.51961524226870437
10
-3.8999999999969059
20
-2.9100505063380506
10
-6.4899494936572211
20
-5.4999999999983658
10
-8.0999999999979977
20
-5.4999999999983658
10
-8.0999999999979977
20
-3.0999999999986305
10
-9.4999999999991758
20
-3.0999999999986305
10
-9.4999999999991758
20
-3.5999999999987975
10
-9.9999999999988987
20
-3.5999999999987975
10
-9.9999999999988987
20
-8.4999999999980353
42
0.41421356237292162
10
-8.4999999999983977
20
-9.9999999999976481
10
-3.5999999999973831
20
-9.9999999999976481
10
-3.5999999999973831
20
-9.4999999999979252
10
-3.0999999999972161
20
-9.4999999999979252
10
-3.0999999999972161
20
-8.0999999999971912
10
-5.4999999999987281
20
-8.0999999999971912
10
-5.4999999999987281
20
-6.4899494936595232
10
-2.9100505063357485
20
-3.899999999996544
10
-0.51961524226817879
20
-3.899999999996544
10
4.8488990600503712e-13
20
-3.5999999999976984
10
0.5196152422718131
20
-3.8999999999980819
10
2.9100505063393829
20
-3.8999999999980819
10
5.5000000000003642
20
-6.4899494936590632
10
5.5000000000003642
20
-8.0999999999967329
10
3.1000000000028494
20
-8.0999999999967329
10
3.1000000000028494
20
-9.4999999999974669
10
3.6000000000030163
20
-9.4999999999974669
10
3.6000000000030163
20
-9.9999999999971898
10
8.5000000000004778
20
-9.9999999999971898
42
0.4142135623729214
10
10.000000000000536
20
-8.4999999999980211
10
10.000000000000535
20
-3.5999999999997012
10
9.4999999999972591
20
-3.5999999999997012
10
9.4999999999972591
20
-3.0999999999995342
10
8.0999999999996337
20
-3.0999999999995342
10
8.0999999999996337
20
-5.499999999999269
10
6.4899494936588571
20
-5.499999999999269
10
3.8999999999985424
20
-2.9100505063389548
10
3.8999999999985424
20
-0.51961524226960876
10
3.5999999999989276
20
3.8712089089898427e-13
10
3.8999999999985424
20
0.51961524227038303
10
3.8999999999985424
20
2.9100505063379529
10
6.4899494936597453
20
5.4999999999991553
10
8.1000000000005219
20
5.4999999999991553
10
8.1000000000005219
20
3.0999999999994206
10
9.4999999999981473
20
3.0999999999994206
10
9.4999999999981473
20
3.5999999999995875
10
9.9999999999978701
20
3.5999999999995875
10
9.9999999999978701
20
8.4999999999988258
42
0.41421356237292162
10
8.4999999999973692
20
9.9999999999984386
10
3.5999999999999077
20
9.9999999999984386
10
3.5999999999999077
20
9.4999999999987157
10
3.0999999999997407
20
9.4999999999987157
10
3.0999999999997407
20
8.0999999999984258
10
5.4999999999972555
20
8.0999999999984258
10
5.4999999999972555
20
6.4899494936585365
10
2.9100505063371624
20
3.8999999999984447
10
0.51961524226959266
20
3.8999999999984447
10
-1.735625532184315e-12
20
3.5999999999980603
10
-0.51961524227039935
20
3.8999999999969059
10
-2.9100505063379689
20
3.8999999999969059
10
-5.5000000000000604
20
6.4899494936589974
10
-5.5000000000000604
20
8.0999999999988859
10
-3.0999999999985484
20
8.0999999999988859
10
-3.0999999999985484
20
9.4999999999991758
10
-3.5999999999987153
20
9.4999999999991758
10
-3.5999999999987153
20
9.9999999999988987
10
-8.49999999999973
20
9.9999999999988987
42
0.4142135623729214
10
-9.9999999999997886
20
8.49999999999973
10
-9.9999999999997868
20
3.6000000000004917
10
-9.5000000000000639
20
3.6000000000004917
10
-9.5000000000000639
20
3.1000000000003247
10
-8.0999999999988859
20
3.1000000000003247
10
-8.0999999999988859
20
5.5000000000000604
10
-6.4899494936581092
20
5.5000000000000604
10
-3.8999999999969059
20
2.9100505063388571
0
CIRCLE
5
101
100
AcDbEntity
8
0
100
AcDbCircle
10
0
20
0
30
0
40
2.4999999999999467
210
0
220
0
230
1
0
ENDSEC
0
SECTION
2
OBJECTS
0
DICTIONARY
5
C
100
AcDbDictionary
3
ACAD_GROUP
350
D
3
ACAD_MLINESTYLE
350
17
0
DICTIONARY
5
D
100
AcDbDictionary
0
DICTIONARY
5
1A
330
C
100
AcDbDictionary
0
DICTIONARY
5
17
100
AcDbDictionary
0
ENDSEC
0
EOF
