0
SECTION
2
HEADER
9
$INSUNITS
70
4
9
$ACADVER
1
AC1014
9
$HANDSEED
5
FFFF
0
ENDSEC
0
SECTION
2
TABLES
0
TABLE
2
VPORT
5
8
100
AcDbSymbolTable
0
ENDTAB
0
TABLE
2
LTYPE
5
5
100
AcDbSymbolTable
0
LTYPE
5
14
100
AcDbSymbolTableRecord
100
AcDbLinetypeTableRecord
2
BYBLOCK
70
0
0
LTYPE
5
15
100
AcDbSymbolTableRecord
100
AcDbLinetypeTableRecord
2
BYLAYER
70
0
0
LTYPE
5
16
100
AcDbSymbolTableRecord
100
AcDbLinetypeTableRecord
2
DASHED
70
0
3
Dashed __ __ __ __ __ __ __ __ __ __ __ __ __ _
72
65
73
2
40
0.75
49
0.5
74
0
49
-0.25
74
0
0
ENDTAB
0
TABLE
2
LAYER
5
2
100
AcDbSymbolTable
70
2
0
LAYER
5
50
100
AcDbSymbolTableRecord
100
AcDbLayerTableRecord
2
0
70
0
62
7
6
CONTINUOUS
0
ENDTAB
0
TABLE
2
STYLE
5
3
100
AcDbSymbolTable
70
1
0
STYLE
5
11
100
AcDbSymbolTableRecord
100
AcDbTextStyleTableRecord
2
STANDARD
70
0
0
ENDTAB
0
TABLE
2
VIEW
5
6
100
AcDbSymbolTable
70
0
0
ENDTAB
0
TABLE
2
UCS
5
7
100
AcDbSymbolTable
70
0
0
ENDTAB
0
TABLE
2
APPID
5
9
100
AcDbSymbolTable
70
2
0
APPID
5
12
100
AcDbSymbolTableRecord
100
AcDbRegAppTableRecord
2
ACAD
70
0
0
ENDTAB
0
TABLE
2
DIMSTYLE
5
A
100
AcDbSymbolTable
70
1
0
ENDTAB
0
TABLE
2
BLOCK_RECORD
5
1
100
AcDbSymbolTable
70
1
0
BLOCK_RECORD
5
1F
100
AcDbSymbolTableRecord
100
AcDbBlockTableRecord
2
*MODEL_SPACE
0
BLOCK_RECORD
5
1B
100
AcDbSymbolTableRecord
100
AcDbBlockTableRecord
2
*PAPER_SPACE
0
ENDTAB
0
ENDSEC
0
SECTION
2
BLOCKS
0
BLOCK
5
20
100
AcDbEntity
100
AcDbBlockBegin
2
*MODEL_SPACE
0
ENDBLK
5
21
100
AcDbEntity
100
AcDbBlockEnd
0
BLOCK
5
1C
100
AcDbEntity
100
AcDbBlockBegin
2
*PAPER_SPACE
0
ENDBLK
5
1D
100
AcDbEntity
100
AcDbBlockEnd
0
ENDSEC
0
SECTION
2
ENTITIES
0
LWPOLYLINE
5
100
100
AcDbEntity
8
0
100
AcDbPolyline
90
110
70
1
43
0.0
10
-3.5999999999976531
20
10.000000000000684
10
-3.8999999999972665
20
9.4803847577306897
10
-3.8999999999972665
20
7.0899494936604412
10
-6.4899494936571287
20
4.50000000000058
10
-8.0999999999989249
20
4.50000000000058
10
-8.0999999999989249
20
6.900000000000313
10
-9.499999999996863
20
6.900000000000313
10
-9.499999999996863
20
6.3999999999996993
10
-9.9999999999970299
20
6.3999999999996993
10
-9.9999999999970299
20
-6.399999999998891
10
-9.4999999999968399
20
-6.3999999999988919
10
-9.4999999999968399
20
-6.8999999999995021
10
-8.0999999999989232
20
-6.8999999999995021
10
-8.0999999999989232
20
-4.4999999999997637
10
-6.4899494936571065
20
-4.4999999999997637
10
-3.8999999999954618
20
-7.0899494936614094
10
-3.8999999999954618
20
-9.4803847577263074
10
-3.5999999999950734
20
-9.9999999999976428
10
-3.8999999999946877
20
-10.519615242267637
10
-3.8999999999946877
20
-12.910050506337875
10
-6.4899494936554412
20
-15.49999999999863
10
-8.0999999999989232
20
-15.49999999999863
10
-8.0999999999989232
20
-13.0999999999989
10
-9.4999999999951807
20
-13.0999999999989
10
-9.4999999999951807
20
-13.599999999997738
10
-10.000000000004425
20
-13.599999999997738
10
-10.000000000004425
20
-18.49999999999859
42
0.41421356237309503
10
-8.5000000000025864
20
-20.00000000000043
10
-3.6000000000046777
20
-20.000000000000426
10
-3.6000000000046777
20
-19.500000000001585
10
-3.1000000000049561
20
-19.500000000001585
10
-3.1000000000049561
20
-18.100000000000428
10
-5.5000000000046949
20
-18.100000000000428
10
-5.5000000000046949
20
-16.489949493663183
10
-2.9100505063421602
20
-13.900000000000652
10
-0.51961524227459677
20
-13.900000000000652
10
-4.5946579874112103e-12
20
-13.600000000001033
10
0.5196152422657343
20
-13.900000000000841
10
2.9100505063350841
20
-13.900000000000841
10
5.4999999999967244
20
-16.489949493662479
10
5.4999999999967244
20
-18.100000000000428
10
3.0999999999965482
20
-18.100000000000428
10
3.0999999999965482
20
-19.500000000000885
10
3.5999999999967178
20
-19.500000000000885
10
3.5999999999967178
20
-19.999999999999719
10
8.4999999999959517
20
-19.999999999999719
42
0.41421356237309503
10
9.9999999999977884
20
-18.499999999997883
10
9.9999999999977884
20
-13.600000000000417
10
9.4999999999971685
20
-13.600000000000417
10
9.4999999999971685
20
-13.100000000001582
10
8.1000000000006303
20
-13.100000000001582
10
8.1000000000006303
20
-15.500000000001322
10
6.4899494936583233
20
-15.500000000001322
10
3.8999999999968993
20
-12.910050506339896
10
3.8999999999968993
20
-10.519615242269669
10
3.5999999999972809
20
-9.9999999999996643
10
3.8999999999976636
20
-9.480384757728336
10
3.8999999999976636
20
-7.0899494936634273
10
6.4899494936599753
20
-4.5000000000011164
10
8.1000000000006285
20
-4.5000000000011164
10
8.1000000000006285
20
-6.9000000000008512
10
9.4999999999988241
20
-6.9000000000008512
10
9.4999999999988241
20
-6.4000000000002366
10
9.999999999998991
20
-6.4000000000002366
10
9.999999999998991
20
6.3999999999983537
10
9.499999999998801
20
6.3999999999983537
10
9.499999999998801
20
6.8999999999989647
10
8.1000000000006267
20
6.8999999999989647
10
8.1000000000006267
20
4.4999999999992273
10
6.4899494936599575
20
4.4999999999992273
10
3.8999999999994217
20
7.0899494936597627
10
3.8999999999994217
20
9.4803847577299898
10
3.5999999999998029
20
9.9999999999999929
10
3.9000000000001851
20
10.519615242271318
10
3.9000000000001851
20
12.910050506338004
10
6.4899494936616087
20
15.499999999999424
10
8.1000000000006249
20
15.499999999999428
10
8.1000000000006249
20
13.099999999999701
10
9.5000000000004636
20
13.099999999999701
10
9.5000000000004619
20
13.600000000000314
10
10.000000000000629
20
13.600000000000314
10
10.000000000000629
20
18.499999999997772
42
0.41421356237309503
10
8.5000000000001243
20
19.999999999998277
10
3.6000000000008785
20
19.999999999998277
10
3.6000000000008785
20
19.499999999998323
10
3.1000000000007129
20
19.499999999998323
10
3.1000000000007129
20
18.099999999999632
10
5.5000000000008944
20
18.099999999999632
10
5.5000000000008944
20
16.489949493659928
10
2.9100505063401343
20
13.899999999999171
10
0.51961524227080114
20
13.899999999999171
10
4.6129766673175254e-13
20
13.599999999999355
10
-0.51961524226953648
20
13.899999999998974
10
-2.9100505063371114
20
13.899999999998974
10
-5.4999999999987539
20
16.489949493660617
10
-5.4999999999987539
20
18.099999999999632
10
-3.09999999999902
20
18.099999999999632
10
-3.09999999999902
20
19.499999999999019
10
-3.599999999998746
20
19.499999999999019
10
-3.599999999998746
20
19.999999999999631
10
-8.4999999999970921
20
19.999999999999631
42
0.41421356237309503
10
-9.9999999999989289
20
18.499999999997794
10
-9.9999999999989306
20
13.600000000000323
10
-9.4999999999985327
20
13.600000000000323
10
-9.4999999999985327
20
13.099999999999712
10
-8.0999999999989267
20
13.099999999999712
10
-8.0999999999989267
20
15.499999999999453
10
-6.4899494936587976
20
15.499999999999453
10
-3.8999999999980419
20
12.910050506338695
10
-3.8999999999980419
20
10.519615242272021
0
LWPOLYLINE
5
101
100
AcDbEntity
8
0
100
AcDbPolyline
90
12
70
1
43
0.0
10
8.0000000000000036
20
-3.0999999999998535
10
5.910050506337873
20
-3.0999999999998575
10
2.9100505063379773
20
-6.0999999999997501
10
-2.9100505063379738
20
-6.0999999999997501
10
-5.9100505063380746
20
-3.0999999999996475
10
-8.0000000000002274
20
-3.0999999999996475
10
-8.0000000000002274
20
3.0999999999996684
10
-5.910050506338095
20
3.0999999999996684
10
-2.9100505063379773
20
6.0999999999997856
10
2.9100505063379707
20
6.0999999999997856
10
5.9100505063378508
20
3.0999999999999019
10
7.9999999999999973
20
3.0999999999999051
0
CIRCLE
5
102
100
AcDbEntity
8
0
100
AcDbCircle
10
-3.4694469519536142e-14
20
9.9999999999997868
30
0
40
2.4999999999995026
210
0
220
0
230
1
0
CIRCLE
5
103
100
AcDbEntity
8
0
100
AcDbCircle
10
3.4694469519536142e-14
20
-9.9999999999997868
30
0
40
2.4999999999995026
210
0
220
0
230
1
0
ENDSEC
0
SECTION
2
OBJECTS
0
DICTIONARY
5
C
100
AcDbDictionary
3
ACAD_GROUP
350
D
3
ACAD_MLINESTYLE
350
17
0
DICTIONARY
5
D
100
AcDbDictionary
0
DICTIONARY
5
1A
330
C
100
AcDbDictionary
0
DICTIONARY
5
17
100
AcDbDictionary
0
ENDSEC
0
EOF
